<svg width="38" height="38" viewBox="0 0 38 38" fill="none" xmlns="http://www.w3.org/2000/svg">
<path d="M38 19C38 29.4937 29.4937 38 19 38C8.50668 38 3.72949e-08 29.4937 0 19C0 8.50649 8.50668 3.72949e-08 19 0C29.4937 0 38 8.50649 38 19Z" fill="#0052FE"/>
<path d="M12.1461 18.5999C12.1379 18.8007 12.1281 19.0047 12.1379 19.2038C12.1379 19.2528 12.1379 19.3018 12.1379 19.3507C12.1379 19.3703 12.1379 19.3899 12.1379 19.4079C12.1379 19.4258 12.1379 19.4715 12.1379 19.5042C12.1379 19.5368 12.1379 19.5988 12.1494 19.6445C12.1494 19.6641 12.1494 19.6821 12.1494 19.7017C12.1494 19.7686 12.1625 19.8371 12.1707 19.904C12.363 21.372 13.0241 22.7395 14.0564 23.8046C15.0888 24.8696 16.4376 25.5758 17.9038 25.8187C19.37 26.0617 20.8757 25.8286 22.1987 25.1539C23.5216 24.4791 24.5917 23.3985 25.2508 22.0716C25.2718 22.0303 25.3045 21.996 25.3447 21.9729C25.385 21.9498 25.4312 21.9389 25.4776 21.9415C25.524 21.9441 25.5686 21.9601 25.6061 21.9875C25.6435 22.015 25.6721 22.0527 25.6883 22.0961C25.818 22.46 26.029 22.7898 26.3053 23.0606C26.5817 23.3314 26.9162 23.5361 27.2835 23.6594C27.6509 23.7826 28.0416 23.8211 28.4261 23.772C28.8107 23.7228 29.1789 23.5874 29.5032 23.3758C29.5482 23.3476 29.6012 23.3346 29.6542 23.3387C29.7072 23.3428 29.7575 23.3638 29.7975 23.3986C29.8376 23.4334 29.8654 23.4801 29.8767 23.5319C29.8881 23.5836 29.8823 23.6376 29.8604 23.6859C29.7572 23.9095 29.6458 24.1298 29.5327 24.3388C28.9959 25.3437 28.3287 26.2739 27.5482 27.1054L27.5351 27.1201C25.7125 29.0348 23.3087 30.2999 20.6936 30.7207H20.6378C18.8135 30.9575 16.9589 30.7704 15.2193 30.174C13.4796 29.5776 11.9023 28.5882 10.6106 27.2833L10.4009 27.0678L10.3353 26.996C10.2993 26.9585 10.2632 26.9209 10.2305 26.8834L10.201 26.8507C10.1354 26.7773 10.0699 26.7022 10.006 26.6271C9.78473 26.3692 9.57498 26.0999 9.37669 25.8224C9.32753 25.7539 9.27837 25.6837 9.23085 25.6135C9.12761 25.465 9.02765 25.3116 8.93261 25.1581C8.88508 25.0847 8.84084 25.008 8.79496 24.9313L8.69663 24.7648C8.65894 24.6946 8.61961 24.626 8.58192 24.5542L8.57373 24.5428C8.5344 24.4677 8.49507 24.3943 8.45738 24.3176C8.41969 24.2408 8.39511 24.1984 8.36726 24.1364C8.35415 24.1135 8.34431 24.0923 8.3312 24.0678L8.27385 23.9421C8.24763 23.8866 8.22141 23.8312 8.19683 23.7789C8.17225 23.7267 8.14275 23.6598 8.11817 23.5977C8.09359 23.5357 8.06901 23.4884 8.04771 23.4345C8.03624 23.4084 8.02641 23.3839 8.01657 23.3578C7.99363 23.3023 7.97233 23.2468 7.95103 23.1946C7.91006 23.0885 7.86909 22.9808 7.8314 22.8681C7.81174 22.8143 7.79371 22.7604 7.77568 22.7049C7.76585 22.6788 7.75766 22.6527 7.74947 22.6249C7.7298 22.5646 7.71014 22.5042 7.69211 22.4438C7.67409 22.3834 7.6495 22.305 7.62984 22.2365C7.61018 22.1679 7.60198 22.1385 7.58887 22.0912C7.57576 22.0439 7.56265 21.9965 7.55118 21.9492C7.53971 21.9019 7.51513 21.8088 7.49874 21.7387C7.48236 21.6685 7.47089 21.6211 7.45778 21.5607C7.44467 21.5004 7.43975 21.4873 7.4332 21.4498L7.40862 21.3339C7.39714 21.2784 7.38567 21.2212 7.37584 21.1706C7.36601 21.12 7.34798 21.0172 7.33487 20.9421C7.32176 20.8671 7.31685 20.8279 7.30865 20.7789C7.27752 20.5716 7.2513 20.366 7.23164 20.1554C7.2218 20.0689 7.21525 19.9808 7.20869 19.8943C7.18357 19.5678 7.17374 19.2338 7.1792 18.8921C7.20647 16.0731 8.2435 13.3565 10.1035 11.2316C11.9634 9.10677 14.5241 7.71329 17.3241 7.30224C20.1242 6.89119 22.9795 7.48959 25.3759 8.98963C27.7722 10.4897 29.552 12.7928 30.3947 15.484C30.568 16.0323 30.7005 16.5926 30.7912 17.1603C30.8947 17.8061 30.7365 18.4664 30.3515 18.9962C29.9665 19.5259 29.3862 19.8818 28.7379 19.9857C28.6133 20.0063 28.4873 20.0178 28.361 20.0199L27.8235 19.9628C27.3357 19.8581 26.8911 19.6087 26.5483 19.2474C26.2054 18.8861 25.9805 18.4299 25.903 17.9389C25.846 17.5842 25.7616 17.2344 25.6506 16.8926C25.6342 16.8437 25.6179 16.7931 25.5998 16.7425L25.5539 16.6151C25.5228 16.5319 25.49 16.4519 25.4556 16.367C25.4212 16.2822 25.3901 16.2038 25.3524 16.1353V16.1222C25.2825 15.9688 25.2054 15.8186 25.1213 15.6717C25.0804 15.5966 25.0361 15.5216 24.9902 15.4481C24.923 15.3371 24.8542 15.2294 24.7805 15.1217L24.71 15.0205C24.6838 14.9846 24.6576 14.947 24.6297 14.9127C24.5789 14.8426 24.5265 14.7756 24.4658 14.7104C24.4052 14.6451 24.3577 14.5765 24.302 14.5129L24.2168 14.4166C24.1889 14.3855 24.161 14.3545 24.1299 14.3235L24.0431 14.2305L23.9513 14.1391C23.8923 14.0803 23.83 14.0199 23.7678 13.9628L23.6744 13.8779C23.4834 13.7082 23.2831 13.5491 23.0746 13.4013C23.0041 13.3524 22.9353 13.305 22.8632 13.2577C22.7092 13.1565 22.5502 13.0618 22.3896 12.9737L22.2929 12.9214C21.9347 12.7347 21.5614 12.578 21.177 12.453L21.0672 12.4204C20.9656 12.3893 20.864 12.3616 20.7591 12.3339L20.6329 12.3028L20.5067 12.2751C20.3904 12.2506 20.2741 12.2294 20.1544 12.2098L20.0627 12.1853C19.9824 12.1723 19.8988 12.1625 19.8234 12.1543L19.6169 12.1331C19.0389 12.089 18.4577 12.1164 17.8865 12.2147C16.8408 12.3952 15.8508 12.813 14.9932 13.4357C14.1357 14.0584 13.4334 14.8692 12.9409 15.8056L12.9261 15.8333C12.8901 15.9008 12.8557 15.9693 12.8229 16.039C12.7852 16.1124 12.7524 16.1859 12.718 16.261C12.6836 16.336 12.6344 16.4552 12.5967 16.5548C12.5738 16.6102 12.5541 16.6641 12.5361 16.718C12.5181 16.7718 12.4984 16.8192 12.482 16.8714C12.428 17.0346 12.3804 17.1978 12.3411 17.3611C12.328 17.4117 12.3149 17.4623 12.3034 17.5129V17.5422C12.2936 17.5912 12.2821 17.6385 12.2739 17.6859C12.2657 17.7332 12.251 17.7969 12.2428 17.8491C12.2346 17.9013 12.2231 17.9585 12.2149 18.0123C12.2067 18.0662 12.1985 18.12 12.1936 18.1755C12.1928 18.1773 12.1923 18.1793 12.1923 18.1813C12.1923 18.1832 12.1928 18.1852 12.1936 18.187C12.1936 18.2408 12.1805 18.2963 12.1772 18.3502C12.174 18.404 12.1674 18.4367 12.1658 18.4808C12.1641 18.5248 12.1477 18.5591 12.1461 18.5999Z" fill="white"/>
<path d="M19.0607 22.9728C21.2472 22.9728 23.0198 21.2073 23.0198 19.0294C23.0198 16.8515 21.2472 15.0859 19.0607 15.0859C16.8741 15.0859 15.1016 16.8515 15.1016 19.0294C15.1016 21.2073 16.8741 22.9728 19.0607 22.9728Z" fill="white"/>
</svg>
